# xmcd
#
# Track frame offsets:
#	150
#	19452
#	40633
#	65839
#	88217
#	110964
#	130016
#	151533
#	172560
#	195377
#	223526
#	234921
#	250874
#
# Disc length: 3902 seconds
#
# Revision: 1
# Processed by: cddbd v1.5.2PL0 Copyright (c) Steve Scherf et al.
# Submitted via: audiograbber 1.83.01
#
DISCID=a40f3c0d
DTITLE=stadtklangfluss - aufbruch
DYEAR=2010
DGENRE=
TTITLE0=mensch
TTITLE1=schmetterling
TTITLE2=flut
TTITLE3=wwjd
TTITLE4=jericho
TTITLE5=strandmission
TTITLE6=seele
TTITLE7=planet
TTITLE8=sturm
TTITLE9=lichter
TTITLE10=lichter (reprise)
TTITLE11=credo
TTITLE12=sonnenblumenfelder
EXTD=
EXTT0=
EXTT1=
EXTT2=
EXTT3=
EXTT4=
EXTT5=
EXTT6=
EXTT7=
EXTT8=
EXTT9=
EXTT10=
EXTT11=
EXTT12=
PLAYORDER=
